<svg width="80" height="80" viewBox="0 0 80 80" fill="currentColor" xmlns="http://www.w3.org/2000/svg">
<mask id="mask0_381_2738" style="mask-type:alpha" maskUnits="userSpaceOnUse" x="0" y="0" width="80" height="80">
<path d="M12.6316 56.8421L0 69.2211V33.6842H12.6316M33.6842 49.0947L27.0737 43.4526L21.0526 49.0105V16.8421H33.6842M54.7368 42.1053L42.1053 54.7368V0H54.7368M66.5684 41.3053L58.9474 33.6842H80V54.7368L72.4632 47.2L42.1053 77.3053L27.4947 64.5895L11.5789 80H0L27.2421 53.3053L42.1053 65.8526" fill="#D71616"/>
</mask>
<g mask="url(#mask0_381_2738)">
<path d="M12.6316 56.8421L0 69.2211V33.6842H12.6316M33.6842 49.0947L27.0737 43.4526L21.0526 49.0105V16.8421H33.6842M54.7368 42.1053L42.1053 54.7368V0H54.7368M66.5684 41.3053L58.9474 33.6842H80V54.7368L72.4632 47.2L42.1053 77.3053L27.4947 64.5895L11.5789 80H0L27.2421 53.3053L42.1053 65.8526" fill="currentColor"/>
</g>
</svg>
