<svg width="80" height="78" viewBox="0 0 80 78" fill="currentColor" xmlns="http://www.w3.org/2000/svg">
<path fill-rule="evenodd" clip-rule="evenodd" d="M0 75.5527C0 76.142 0.234118 76.7072 0.650849 77.1239C1.06758 77.5407 1.63279 77.7748 2.22214 77.7748H77.7748V73.3305H4.44427V63.0176L18.5593 45.8782C20.4788 46.747 22.6446 46.9053 24.67 46.3249C26.6954 45.7444 28.4486 44.4631 29.6166 42.7095L40.0051 47.0382C40.0635 48.3983 40.4335 49.7268 41.0866 50.9213C41.7398 52.1158 42.6585 53.1443 43.7721 53.9275C44.8856 54.7106 46.1642 55.2276 47.5091 55.4384C48.8541 55.6492 50.2295 55.5482 51.5292 55.1433C52.829 54.7384 54.0184 54.0404 55.0056 53.103C55.9929 52.1657 56.7516 51.014 57.2234 49.737C57.6951 48.46 57.8672 47.0917 57.7264 45.7376C57.5856 44.3835 57.1356 43.0799 56.4112 41.9273L67.4663 28.11C69.4395 28.9972 71.6684 29.1344 73.7355 28.4957C75.8025 27.857 77.5656 26.4864 78.6943 24.6407C79.8231 22.7951 80.2399 20.6011 79.8668 18.4701C79.4936 16.3391 78.356 14.4174 76.6673 13.0651C74.9786 11.7128 72.8546 11.0229 70.6936 11.1246C68.5326 11.2263 66.4828 12.1126 64.9285 13.6175C63.3743 15.1224 62.4222 17.1425 62.2508 19.2991C62.0794 21.4558 62.7005 23.6009 63.9976 25.3324L53.1646 38.8718C52.1214 38.2989 50.9737 37.9413 49.7897 37.8203C48.6056 37.6993 47.4093 37.8173 46.2717 38.1673C45.1342 38.5173 44.0785 39.0923 43.1673 39.858C42.2561 40.6238 41.508 41.5647 40.9673 42.625L31.0788 38.5052C31.1965 37.0718 30.9647 35.6313 30.4032 34.3073C29.8417 32.9832 28.9672 31.8152 27.855 30.9035C26.7427 29.9917 25.4259 29.3635 24.0174 29.0727C22.6089 28.7819 21.1509 28.8372 19.7685 29.2339C18.3861 29.6305 17.1206 30.3567 16.0806 31.3501C15.0406 32.3435 14.2572 33.5744 13.7976 34.9372C13.338 36.2999 13.216 37.7539 13.4419 39.1742C13.6679 40.5945 14.2352 41.9388 15.095 43.0917L4.44427 56.0245V0H0V75.5527ZM26.6656 37.7763C26.6656 38.955 26.1974 40.0854 25.3639 40.9189C24.5305 41.7524 23.4001 42.2206 22.2214 42.2206C21.0427 42.2206 19.9123 41.7524 19.0788 40.9189C18.2453 40.0854 17.7771 38.955 17.7771 37.7763C17.7771 36.5976 18.2453 35.4672 19.0788 34.6338C19.9123 33.8003 21.0427 33.3321 22.2214 33.3321C23.4001 33.3321 24.5305 33.8003 25.3639 34.6338C26.1974 35.4672 26.6656 36.5976 26.6656 37.7763ZM48.887 51.1091C50.0657 51.1091 51.1961 50.6409 52.0296 49.8075C52.8631 48.974 53.3313 47.8436 53.3313 46.6649C53.3313 45.4862 52.8631 44.3558 52.0296 43.5223C51.1961 42.6888 50.0657 42.2206 48.887 42.2206C47.7083 42.2206 46.5779 42.6888 45.7444 43.5223C44.911 44.3558 44.4427 45.4862 44.4427 46.6649C44.4427 47.8436 44.911 48.974 45.7444 49.8075C46.5779 50.6409 47.7083 51.1091 48.887 51.1091ZM75.5527 19.9992C75.5527 21.1779 75.0844 22.3083 74.251 23.1418C73.4175 23.9753 72.2871 24.4435 71.1084 24.4435C69.9297 24.4435 68.7993 23.9753 67.9658 23.1418C67.1323 22.3083 66.6641 21.1779 66.6641 19.9992C66.6641 18.8205 67.1323 17.6901 67.9658 16.8567C68.7993 16.0232 69.9297 15.555 71.1084 15.555C72.2871 15.555 73.4175 16.0232 74.251 16.8567C75.0844 17.6901 75.5527 18.8205 75.5527 19.9992Z" fill="currentColor"/>
</svg>
