<svg width="80" height="80" viewBox="0 0 80 80" fill="currentColor" xmlns="http://www.w3.org/2000/svg">
<path d="M21.7772 41.7777H58.2217V48.6222H61.7772V38.2222H41.7772V31.1111H38.2217V38.2222H18.2217V48.6222H21.7772V41.7777Z" fill="currentColor"/>
<path d="M31.11 51.1111H8.8878C7.70906 51.1111 6.5786 51.5793 5.74511 52.4128C4.91161 53.2463 4.44336 54.3768 4.44336 55.5555V68.8889C4.44336 70.0676 4.91161 71.1981 5.74511 72.0316C6.5786 72.8651 7.70906 73.3333 8.8878 73.3333H31.11C32.2888 73.3333 33.4192 72.8651 34.2527 72.0316C35.0862 71.1981 35.5545 70.0676 35.5545 68.8889V55.5555C35.5545 54.3768 35.0862 53.2463 34.2527 52.4128C33.4192 51.5793 32.2888 51.1111 31.11 51.1111ZM8.8878 68.8889V55.5555H31.11V68.8889H8.8878Z" fill="currentColor"/>
<path d="M71.11 51.1111H48.8878C47.7091 51.1111 46.5786 51.5793 45.7451 52.4128C44.9116 53.2463 44.4434 54.3768 44.4434 55.5555V68.8889C44.4434 70.0676 44.9116 71.1981 45.7451 72.0316C46.5786 72.8651 47.7091 73.3333 48.8878 73.3333H71.11C72.2888 73.3333 73.4192 72.8651 74.2527 72.0316C75.0862 71.1981 75.5545 70.0676 75.5545 68.8889V55.5555C75.5545 54.3768 75.0862 53.2463 74.2527 52.4128C73.4192 51.5793 72.2888 51.1111 71.11 51.1111ZM48.8878 68.8889V55.5555H71.11V68.8889H48.8878Z" fill="currentColor"/>
<path d="M28.8878 28.889H51.11C52.2888 28.889 53.4192 28.4207 54.2527 27.5872C55.0862 26.7537 55.5545 25.6233 55.5545 24.4445V11.1112C55.5545 9.93245 55.0862 8.80199 54.2527 7.9685C53.4192 7.135 52.2888 6.66675 51.11 6.66675H28.8878C27.7091 6.66675 26.5786 7.135 25.7451 7.9685C24.9116 8.80199 24.4434 9.93245 24.4434 11.1112V24.4445C24.4434 25.6233 24.9116 26.7537 25.7451 27.5872C26.5786 28.4207 27.7091 28.889 28.8878 28.889ZM28.8878 11.1112H51.11V24.4445H28.8878V11.1112Z" fill="currentColor"/>
</svg>
