<svg width="120" height="105" viewBox="0 0 120 105" fill="currentColor" xmlns="http://www.w3.org/2000/svg">
<path d="M20 45C31.0625 45 40 53.9375 40 65C40 76.0625 31.0625 85 20 85C8.9375 85 0 76.0625 0 65C0 53.9375 8.9375 45 20 45ZM67.5 75C70.8152 75 73.9946 76.317 76.3388 78.6612C78.683 81.0054 80 84.1848 80 87.5C80 90.8152 78.683 93.9946 76.3388 96.3388C73.9946 98.683 70.8152 100 67.5 100C64.1848 100 61.0054 98.683 58.6612 96.3388C56.317 93.9946 55 90.8152 55 87.5C55 84.1848 56.317 81.0054 58.6612 78.6612C61.0054 76.317 64.1848 75 67.5 75ZM70 0C77.9565 0 85.5871 3.16071 91.2132 8.7868C96.8393 14.4129 100 22.0435 100 30C100 46.5625 86.5625 60 70 60C62.0435 60 54.4129 56.8393 48.7868 51.2132C43.1607 45.5871 40 37.9565 40 30C40 13.4375 53.4375 0 70 0Z" fill="currentColor"/>
<path d="M56 61C64.85 61 72 68.15 72 77C72 85.85 64.85 93 56 93C47.15 93 40 85.85 40 77C40 68.15 47.15 61 56 61ZM94 85C96.6522 85 99.1957 86.0536 101.071 87.9289C102.946 89.8043 104 92.3478 104 95C104 97.6522 102.946 100.196 101.071 102.071C99.1957 103.946 96.6522 105 94 105C91.3478 105 88.8043 103.946 86.9289 102.071C85.0536 100.196 84 97.6522 84 95C84 92.3478 85.0536 89.8043 86.9289 87.9289C88.8043 86.0536 91.3478 85 94 85ZM96 25C102.365 25 108.47 27.5286 112.971 32.0294C117.471 36.5303 120 42.6348 120 49C120 62.25 109.25 73 96 73C89.6348 73 83.5303 70.4714 79.0294 65.9706C74.5286 61.4697 72 55.3652 72 49C72 35.75 82.75 25 96 25Z" fill="currentColor"/>
</svg>
