<svg width="16" height="24" viewBox="0 0 16 24" fill="none" xmlns="http://www.w3.org/2000/svg">
<g clip-path="url(#clip0_136_2419)">
<path d="M6 21H2.5C1.137 21 0 20.153 0 18.8V4.4C0 4.176 0.176 4 0.4 4H15.6C15.824 4 16 4.176 16 4.4V18.8C16 20.153 14.863 21 13.5 21H12C10.542 21 9.605 21.276 8.4 22.5C8.137 22.753 7.77 23.168 7.3 23.745C7.1594 23.8955 6.9658 23.9853 6.76013 23.9956C6.55447 24.0058 6.35288 23.9357 6.198 23.8C6.035 23.655 6 23.454 6 23.237V21ZM2 6V18.4C2 18.763 2.211 19 2.6 19H7.7V20.7C9.007 19.54 10.288 19 12 19H13.4C13.789 19 14 18.763 14 18.4V6H2Z" fill="white"/>
</g>
<defs>
<clipPath id="clip0_136_2419">
<rect width="16" height="24" fill="white"/>
</clipPath>
</defs>
</svg>
