<svg width="417" height="417" viewBox="0 0 417 417" fill="none" xmlns="http://www.w3.org/2000/svg">
<path d="M145.833 9.54167V53.7917C110.019 68.3343 80.3708 94.8689 61.9596 128.857C43.5483 162.844 37.5184 202.173 44.9011 240.116C52.2839 278.058 72.6206 312.256 102.433 336.861C132.245 361.466 169.679 374.947 208.333 375C241.541 375.003 273.993 365.09 301.53 346.532C329.067 327.973 350.435 301.614 362.896 270.833H407.125C380.583 355.354 301.625 416.667 208.333 416.667C93.2708 416.667 0 323.396 0 208.333C0 115.042 61.3125 36.0833 145.833 9.54167ZM208.333 0C323.396 0 416.667 93.2708 416.667 208.333C416.667 215.375 416.313 222.313 415.625 229.167H187.5V1.04167C194.354 0.354166 201.292 0 208.333 0ZM229.167 42.9583V187.5H373.708C369.071 150.783 352.351 116.653 326.183 90.4841C300.014 64.3153 265.883 47.5955 229.167 42.9583Z" fill="#D71616"/>
</svg>
